<svg xmlns="http://www.w3.org/2000/svg" width="256" height="256"><path fill-opacity=".016" d="M0 128.004v128.004l128.25-.254 128.25-.254.254-127.75L257.008 0H0v128.004m.485.496c0 70.4.119 99.053.265 63.672.146-35.38.146-92.98 0-128C.604 29.153.485 58.1.485 128.5" fill="#1976D2" fill-rule="evenodd"/><path fill-opacity=".179" d="M1.699 41.833c-1.485.275-1.749 1.155-1.5 5L.5 51.5l5.5.292 5.5.293-.041 12.207c-.054 16.315-.209 15.872 5.421 15.507l4.62-.299L22 66l.5-13.5 4.981-.314c2.739-.173 5.32-.848 5.734-1.5 1.246-1.959.881-7.362-.579-8.573-1.239-1.029-25.694-1.25-30.937-.28m34.733.484c-.264.688-.357 9.335-.206 19.217L36.5 79.5l13.923.279c15.156.304 15.534.175 15.562-5.329C66.008 69.764 64.51 69 55.3 69c-6.6 0-8.3-.298-8.3-1.456 0-1.114 1.704-1.525 7.25-1.75l7.25-.294v-9l-7.25-.294c-6.429-.26-7.25-.515-7.25-2.25C47 52.16 47.734 52 56 52c4.95 0 9.03-.337 9.067-.75.038-.413.266-2.275.507-4.139.733-5.653-.253-6.044-15.213-6.044-9.839 0-13.578.335-13.929 1.25m33.795-.478c-.973.617-1.209 5.162-1 19.234L69.5 79.5l4.401.315c2.844.203 4.696-.15 5.235-1 .458-.723.84-5.082.849-9.687L80 60.756l7.673 9.671c7.641 9.631 7.689 9.67 11.75 9.372l4.077-.299v-38l-4.253-.308c-3.839-.277-4.354-.041-5.293 2.429-.616 1.621-.766 5.514-.368 9.557.372 3.775.28 6.797-.207 6.766-.483-.03-4.029-4.038-7.879-8.905-7.604-9.614-11.204-11.783-15.273-9.2m39.991.026c-.962.595-1.199 5.189-.991 19.208L109.5 79.5H121c10.943 0 11.7-.135 15.619-2.796 5.222-3.545 7.581-8.662 7.581-16.445 0-8.716-3.439-14.578-10.2-17.389-3.078-1.279-22.041-2.081-23.782-1.005m38.113.391c-.961 1.534-1.282 35.206-.35 36.714.447.723 5.349.995 14.596.809L176.5 79.5v-10l-9.25-.288c-7.319-.227-9.25-.592-9.25-1.75 0-1.153 1.586-1.462 7.5-1.462 4.125 0 7.549-.338 7.61-.75.535-3.663.531-7.213-.01-8.089-.361-.583-3.788-1.195-7.617-1.36-5.63-.243-7.025-.628-7.289-2.013-.286-1.5.824-1.747 8.99-2l9.316-.288v-10l-13.695-.244c-10.057-.179-13.902.087-14.474 1m32.997.023c-.88 1.422-1.582 32.142-.811 35.471.454 1.958 1.16 2.25 5.447 2.25h4.926l.305-4.741c.429-6.668 2.644-6.763 7.454-.32 3.698 4.954 3.888 5.061 9.005 5.061 2.876 0 5.459-.374 5.741-.831.283-.457-1.015-3.102-2.885-5.878l-3.399-5.047 2.416-2.269c7.528-7.073 4.32-21.397-5.35-23.883-5.546-1.425-21.935-1.292-22.849.187M226 43.25c-10.972 5.865-14.114 20.519-6.372 29.72 8.127 9.658 22.557 9.992 31.207.722 7.591-8.135 5.552-22.687-4.117-29.388-5.673-3.931-14.497-4.38-20.718-1.054m-106.072 13.5c-.04 2.612-.153 6.438-.25 8.501-.159 3.353.087 3.763 2.322 3.868 6.457.305 9.496-.718 10.829-3.642 3.316-7.28-.492-13.477-8.284-13.477H120l-.072 4.75m71.072-.8V60h4.878c5.415 0 7.468-1.535 6.949-5.195-.292-2.059-.94-2.337-6.077-2.605l-5.75-.3v4.05m38.913-2.668c-6.467 4.965-4.226 14.818 3.71 16.307 9.138 1.714 14.536-8.474 8.129-15.339-2.368-2.536-9.081-3.085-11.839-.968M104 112.056c-14.025 8.168-26.287 15.822-27.25 17.008-1.566 1.93-1.75 4.873-1.75 27.924 0 30.225-.104 29.903 8.027 24.901 4.767-2.934 5.488-3.104 8.504-2.014 3.183 1.151 3.872.861 20.363-8.592 9.388-5.381 17.077-10.183 17.087-10.673.011-.489-.728-1.435-1.64-2.103-1.451-1.061-1.014-1.575 3.499-4.11l5.158-2.897.001-8.224c.001-8.058.06-8.255 2.893-9.72 1.636-.846 3.372-2.875 4-4.675 1.995-5.724 1.317-9.83-2.892-17.499-2.2-4.008-4-8.344-4-9.635 0-2.928-1.773-4.778-4.45-4.645-1.128.057-13.525 6.786-27.55 14.954m13.236-.405-4.264 2.568 1.856 3.141a686.199 686.199 0 0 1 4.569 7.913l2.715 4.774 4.185-2.496c2.301-1.372 4.31-2.873 4.464-3.334.388-1.165-7.031-14.502-8.261-14.851-.55-.156-2.919.873-5.264 2.285M96.25 123.816c-2.338 1.464-4.25 3.061-4.25 3.55 0 .488 1.819 4.183 4.042 8.211l4.043 7.323 4.457-2.693c2.452-1.481 4.458-3.09 4.458-3.577 0-.849-7.951-15.711-8.32-15.553-.099.043-2.092 1.275-4.43 2.739m24.664 44.294C91.886 184.896 90 186.053 90 187.076c0 .543.787 1.283 1.75 1.645.963.361 5.703 3.047 10.535 5.968s9.163 5.311 9.626 5.311c1.107 0 46.2-25.853 47.914-27.471 1.08-1.019-.218-2.14-7-6.048a1849.813 1849.813 0 0 1-11.411-6.62l-3.086-1.821-17.414 10.07M152 195.017c-14.025 8.189-26.544 14.91-27.821 14.936-1.276.026-11.94-5.526-23.698-12.338-11.758-6.812-21.595-12.168-21.86-11.902-1.691 1.69.595 3.353 20.379 14.824 3.575 2.072 10.248 5.95 14.829 8.616 8.838 5.143 10.919 5.648 14.456 3.505 1.218-.738 6.715-3.957 12.215-7.154 5.5-3.196 13.6-7.941 18-10.544 4.4-2.603 9.931-5.703 12.291-6.888 2.361-1.185 5.173-3.036 6.25-4.113 1.97-1.97 2.604-4.014 1.209-3.895-.412.034-12.225 6.763-26.25 14.953m-12.228-8.611c-4.8 2.869-8.998 5.487-9.328 5.817-.331.33 1.395 1.77 3.834 3.2l4.435 2.599 9.643-5.617c5.304-3.089 9.644-5.974 9.644-6.412 0-1.036-6.758-5.021-8.307-4.898-.656.051-5.121 2.442-9.921 5.311" fill="#1976D2" fill-rule="evenodd"/><path fill-opacity=".699" d="M230.564 42.093c-10.75 2.603-17.413 15.235-13.5 25.592 3.745 9.912 16.593 14.976 26.436 10.419 7.924-3.669 12.078-10.742 11.266-19.186-1.133-11.79-12.464-19.668-24.202-16.825M.607 43.582c-1.01 2.633-.683 6.251.643 7.109 1.272.823 1.768.9 7.5 1.161L12 52v27.11l4.75-.305 4.75-.305.279-13.25c.2-9.492.625-13.3 1.5-13.427.672-.097 3.021-.21 5.221-.25l4-.073.305-4.75.305-4.75H17.162c-13.62 0-16.037.231-16.555 1.582m36.058.168c-.259.962-.402 9.175-.318 18.25l.153 16.5 14.25.277 14.25.278V70h-9.5c-8.481 0-9.5-.193-9.5-1.8 0-2.993 1.79-3.915 6.286-3.237 2.318.35 5.339.368 6.714.041 2.07-.492 2.5-1.189 2.5-4.049V57.5l-5.5-.259c-8.12-.383-10-.996-10-3.26 0-1.978 1.885-2.581 6.5-2.081 1.1.119 4.362-.067 7.25-.414l5.25-.63V42H51.067c-12.423 0-13.983.19-14.402 1.75m33.012 0c-.399 1.524-.29 22.742.164 32 .155 3.162.281 3.25 4.659 3.25H79V68.531c0-8.97-.218-10.384-1.525-9.883-1.19.456-1.473-.094-1.289-2.505.258-3.383 2.533-5.04 3.491-2.542.467 1.218.778 1.281 1.394.285.435-.705.541.586.235 2.87-.532 3.966-.233 4.557 6.698 13.249 7.214 9.046 7.278 9.096 11.375 8.796l4.121-.301v-36h-9l-.288 9.25c-.158 5.087-.608 9.246-1 9.24-.391-.005-4.029-4.28-8.083-9.5-7.02-9.038-7.553-9.49-11.183-9.49-2.789 0-3.934.469-4.269 1.75m39.808-.571c-.295.767-.411 9.028-.26 18.358L109.5 78.5l10.097.283c6.175.174 11.225-.179 13-.907 2.248-.922 2.508-1.285 1.153-1.607-.963-.228-1.75-.848-1.75-1.378 0-.579.795-.536 2 .109 4.527 2.423 8.437-3.041 9.477-13.242.546-5.353.305-6.906-1.669-10.735-3.56-6.906-7.119-8.443-20.548-8.876-8.938-.288-11.35-.077-11.775 1.032m39.209-.539c-.382.381-.694 8.731-.694 18.554v17.861l14.25-.278 14.25-.277v-8l-9.143-.286c-8.119-.254-9.2-.506-9.657-2.252-.704-2.692 1.596-3.744 6.623-3.028 7.401 1.054 8.677.465 8.677-4.004V57h-6.965c-5.952 0-7.121-.292-8.04-2.009-.91-1.7-.705-2.151 1.328-2.924 1.322-.502 4.152-.68 6.29-.394 2.138.285 5.442.114 7.343-.379 3.196-.831 3.46-1.197 3.5-4.846l.044-3.948-13.556-.277c-7.456-.152-13.869.035-14.25.417m32.973.027c-.367.366-.667 8.691-.667 18.5V79h9.89l.305-4.741c.429-6.668 2.644-6.763 7.454-.32 3.707 4.967 3.877 5.061 9.064 5.061 2.908 0 5.287-.256 5.287-.57 0-.313-1.35-2.532-3-4.93-3.063-4.451-3.719-6.5-2.082-6.5.506 0 1.909-1.602 3.119-3.56 1.771-2.865 2.113-4.62 1.751-8.985C211.989 44.819 207.329 42 192.199 42c-5.426 0-10.166.3-10.532.667m-62.054 8.9c-.265.689-.582 5.006-.706 9.593l-.225 8.34 4.966.296c8.245.49 12.38-4.491 10.22-12.312-1.193-4.321-2.698-5.42-8.729-6.373-3.727-.589-5.171-.47-5.526.456M191 55.836v4.836l4.176.164c4.793.188 8.824-1.999 8.824-4.788 0-3.312-2.775-5.048-8.071-5.048H191v4.836m38.077-2.247c-2.486 2.092-3.077 3.353-3.077 6.566 0 5.295 1.447 7.716 5.666 9.479 9.873 4.125 17.993-8.129 10.411-15.711-3.831-3.831-8.696-3.956-13-.334M43.261 61.551c-1.74 1.883-.517 4.906 1.356 3.352 1.499-1.244 1.837-3.51.633-4.239-.413-.25-1.308.15-1.989.887m112.769-.742c-.016.72-.48 1.031-1.03.691-.55-.34-1 .309-1 1.441 0 1.132.648 2.059 1.441 2.059 2.078 0 2.828-1.708 1.644-3.742-.629-1.08-1.036-1.253-1.055-.449M92 64c0 .55.477 1 1.059 1s.781-.45.441-1-.816-1-1.059-1-.441.45-.441 1m23.206 2.794c.253 1.812.086 3.526-.373 3.809-.458.283-.833.038-.833-.544 0-.582-.408-1.059-.906-1.059-.499 0-.667.918-.373 2.04.293 1.121.769 1.803 1.057 1.515.288-.288 1.019.136 1.623.942.621.829 1.624 1.133 2.307.701.944-.597.941-1.674-.016-4.915-1.559-5.277-3.091-6.811-2.486-2.489M201 64.882c0 .55.45 1.278 1 1.618.55.34 1 .168 1-.382s-.45-1.278-1-1.618c-.55-.34-1-.168-1 .382m-64.921 7.701c.048 1.165.285 1.402.604.605.289-.722.253-1.585-.079-1.917-.332-.332-.568.258-.525 1.312m-31.539 39.976c-13.728 7.981-25.765 15.24-26.75 16.131-1.634 1.478-1.79 3.917-1.79 27.906 0 15.119.395 26.53.93 26.861.511.316 3.318-.835 6.238-2.556 4.805-2.833 5.617-3.019 8.547-1.959 3.106 1.123 3.884.796 19.012-7.961 8.675-5.023 16.199-9.547 16.719-10.053.59-.573.213-1.457-.998-2.342-2.232-1.633-2.422-1.386 3.802-4.95l4.75-2.72v-8.005c0-7.813.07-8.044 2.948-9.696 6.271-3.599 6.775-11.144 1.424-21.326-1.995-3.797-3.924-8.363-4.285-10.147-1.161-5.722-3.561-4.872-30.547 10.817m12.108-1.551-4.744 3.009 4.523 8.296c3.511 6.441 4.563 9.445 4.704 13.429.203 5.744-1.722 9.676-5.292 10.809-2.988.949-5.839-2.628-5.839-7.326 0-2.807-5.966-16.079-8.582-19.092-.243-.28-9.792 5.131-11.189 6.341-.149.129 1.757 3.842 4.237 8.251 3.753 6.674 4.551 9.024 4.771 14.04.282 6.45-1.263 9.486-5.376 10.561-2.849.745-5.859-2.628-5.869-6.576-.007-2.758-.612-3.578-4-5.417L80 145.166v16.976c0 9.337.338 16.791.75 16.566.412-.226 5.7-3.326 11.75-6.89 6.05-3.564 17.591-10.221 25.646-14.793l14.646-8.312.682-7.277c.431-4.604.286-8.016-.396-9.291-.593-1.107-1.078-3.639-1.078-5.626 0-4.035-7.348-18.519-9.395-18.519-.667 0-3.348 1.354-5.957 3.008m18.852 49.718c-1.65.861-3.225 1.837-3.5 2.169-.275.333-2.075 1.411-4 2.396-1.925.985-4.412 2.335-5.528 3-1.115.665-6.74 3.89-12.5 7.167-5.759 3.276-10.697 6.201-10.972 6.5-.275.298-2.187 1.4-4.25 2.449-4.143 2.108-4.628 3.065-2 3.947.963.324 2.425 1.038 3.25 1.588 5.003 3.337 15.21 9.058 16.161 9.058.62 0 4.774-2.178 9.233-4.84 4.458-2.662 12.606-7.409 18.106-10.55 5.5-3.14 10.675-6.104 11.5-6.585.825-.481 3.215-1.862 5.312-3.069l3.811-2.195-5.311-3.182c-15.792-9.459-16.04-9.56-19.312-7.853m-26.687 18.957c.721.289 1.584.253 1.916-.079.332-.332-.258-.568-1.312-.525-1.165.048-1.402.285-.604.604" fill="#1976D2" fill-rule="evenodd"/><path fill-opacity=".968" d="M227.459 43.88c-18.644 8.468-12.483 35.15 8.107 35.111 6.449-.013 14.496-4.445 16.665-9.179C254.067 65.804 255.2 59 254.031 59c-.464 0-.622-.847-.351-1.883s-.179-3.173-.999-4.75c-4.649-8.939-15.897-12.723-25.222-8.487M1 46.95v3.95l5.75.3 5.75.3.159 13c.087 7.15.199 13.338.25 13.75.05.412 1.878.75 4.063.75h3.972l.278-13.75.278-13.75L27 51l5.5-.5.31-3.75.311-3.75H1v3.95m36 14.078v18.028l13.75-.278L64.5 78.5v-8l-9.5.109c-5.225.06-9.512.51-9.526 1-.014.49-.604 1.791-1.311 2.891-1.199 1.867-1.257 1.817-.863-.75.473-3.079-1.836-3.963-2.611-1-.43 1.646-.464 1.644-.573-.025-.068-1.037.923-2.17 2.384-2.725 1.375-.523 2.464-1.524 2.421-2.225-.061-.993-.19-1-.581-.033-.737 1.825-4.419-.373-3.712-2.216.305-.794.023-3.054-.627-5.023-.922-2.793-.911-3.907.05-5.064 1.085-1.308 1.522-1.294 3.684.123 2.309 1.513 2.42 1.499 1.882-.227-1.072-3.443.65-4.241 9.812-4.543l8.862-.292.383-3.75.382-3.75H37v18.028m33.227-.278L70.5 78.5h8l.315-4.997c.49-7.773-.501-11.386-3.314-12.092-2.048-.514-2.325-1.043-1.832-3.508.341-1.703.155-2.903-.45-2.903-.568 0-.796-.9-.509-2 .288-1.1.947-2 1.466-2 .518 0 .714-.369.436-.819-.279-.451.815-.625 2.431-.388 1.615.237 2.721.78 2.458 1.206-.264.426.298.713 1.249.638.951-.075 2.167.851 2.703 2.058.536 1.208 2.003 2.746 3.261 3.419 2.367 1.267 2.996 3.329 1.33 4.359-.526.325-.672 1.364-.323 2.309.348.945-.797.208-2.544-1.638-5.771-6.095-3.348-.728 3.576 7.921 6.068 7.58 7.133 8.466 10.5 8.745l3.747.311V42.885l-4.25.308-4.25.307-.124 5.682c-.162 7.379.584 11.479 1.758 9.66.712-1.104 1.041-1.075 1.851.158 1.435 2.187 1.231 3.297-.485 2.638-.825-.316-1.5-.177-1.5.31s.556 1.071 1.236 1.297c.783.261.2 1.374-1.592 3.034-2.383 2.208-3.13 2.434-4.737 1.431C89.858 67.055 89 66.151 89 65.7c0-.45.377-.585.838-.3.46.284.782-1.074.714-3.018-.095-2.75-1.537-5.297-6.489-11.459C78.087 43.487 77.458 43 73.825 43h-3.871l.273 17.75m39.836-3.5c.047 10.443.328 13.588 1.052 11.774.543-1.363.731-3.5.418-4.75-.493-1.963-.185-2.274 2.255-2.274 2.164 0 3.047.628 3.769 2.68.773 2.197.981 1.386 1.155-4.5.156-5.26-.128-7.18-1.061-7.18-.701 0-2.303-.959-3.561-2.13-1.809-1.686-2.005-2.309-.938-2.985 1.019-.646.884-.858-.557-.87-1.842-.014-1.845-.082-.095-2.015 1.757-1.941 1.747-2-.345-2-2.109 0-2.154.305-2.092 14.25M116.232 45c-1.437 2.301-.981 2.479 2.084.811 2.704-1.471 5.597-1.761 6.295-.631.29.469.881.634 1.314.367.432-.268.579.599.325 1.926-.381 1.994.141 2.663 3.009 3.862 3.518 1.47 5.741 5.389 5.741 10.122 0 1.772.531 2.121 2.97 1.952 4.602-.319 5.964-2.302 5.042-7.343-1.645-8.994-7.412-13.062-18.521-13.064-5.928-.002-7.203.307-8.259 1.998m32.72-.75c-.09 2.345-.113 23.235-.032 29L149 79H176.115l-.308-4.25-.307-4.25h-18.451l-.604 2.75c-.755 3.436-2.366 3.638-1.994.25.15-1.375-.114-2.5-.589-2.5-.474 0-.862.45-.862 1s-.562.985-1.25.967c-.687-.019-.246-.871.98-1.894 1.967-1.642 2.05-2.01.705-3.127-.84-.697-1.268-1.938-.953-2.759.315-.821.069-3.016-.545-4.878-1.388-4.205.167-6.859 3.099-5.29 1.493.799 1.884.567 2.145-1.271.301-2.121.841-2.264 9.569-2.536l9.25-.287V43h-13.5c-10.108 0-13.512.314-13.548 1.25m33.002-1c-.378 2.052-.577 31.868-.224 33.5.403 1.864 1.154 2.25 4.378 2.25H190v-4.378c0-8.156 3.839-8.369 9.475-.524 3.412 4.749 3.678 4.902 8.534 4.902h5.011l-3.677-5.539-3.678-5.538 2.273-1.592c2.625-1.839 5.062-7.085 5.062-10.898 0-4.03-2.953-9.357-6.085-10.977C204.948 43.439 200.767 43 193.05 43c-6.078 0-11.071.112-11.096.25m-171.26 1.389c-.992.992.221 2.331 1.624 1.793.694-.267 1.31.311 1.381 1.293.255 3.567.944 6.888 1.673 8.067C16.528 57.663 18 57.219 18 55c0-1.1.498-2 1.107-2s.848-.675.531-1.5c-.316-.825-.187-1.5.286-1.5 1.025 0 2.341-3.069 1.624-3.786-.275-.274-1.186.07-2.024.766-1.273 1.056-1.527.956-1.539-.608-.013-1.544-.179-1.614-.947-.4-.797 1.261-1.025 1.225-1.591-.25-.649-1.691-3.496-2.34-4.753-1.083m12.385 1.944c.048 1.165.285 1.402.604.605.289-.722.253-1.585-.079-1.917-.332-.332-.568.258-.525 1.312m107.548.622c.346.56.17 1.306-.391 1.657-.592.371-.064 1.356 1.263 2.352 2.202 1.654 2.297 1.635 2.716-.559.315-1.647-.206-2.575-1.891-3.37-1.46-.689-2.092-.719-1.697-.08m94.498.537c-.536.958-1.297 1.419-1.69 1.026-.394-.393-1.587.91-2.651 2.897-1.789 3.337-1.812 3.734-.306 5.223 1.5 1.484 1.577 1.472.965-.149-.506-1.338-.278-1.613.946-1.143 1.051.403 1.611.083 1.611-.922 0-.846.9-1.825 2-2.174s2-1.081 2-1.626c0-.546.45-.714 1-.374.55.34 1 .141 1-.441S229.55 49 229 49s-1-.675-1-1.5c0-2.037-1.679-1.895-2.875.242M76 48.059c0 .582.45.781 1 .441s1-.816 1-1.059S77.55 47 77 47s-1 .477-1 1.059M43.5 50c-.34.55-.141 1 .441 1S45 50.55 45 50s-.198-1-.441-1-.719.45-1.059 1m53.5.059c0 .582.45.781 1 .441s1-.816 1-1.059S98.55 49 98 49s-1 .477-1 1.059m90.079 1.524c.048 1.165.285 1.402.604.605.289-.722.253-1.585-.079-1.917-.332-.332-.568.258-.525 1.312m4.121-.383c-.66.66-1.2 3.045-1.2 5.3s-.399 4.528-.888 5.05c-.488.523-1.222 2.054-1.632 3.403-.699 2.307-.642 2.352.952.758.932-.933 1.447-2.098 1.143-2.59-.713-1.153 2.834-2.09 7.975-2.107 2.228-.008 4.59-.554 5.25-1.214 1.989-1.989 1.426-6.528-1.023-8.243-2.634-1.846-8.878-2.056-10.577-.357m31.3-.2c-.34.55-.141 1 .441 1S224 51.55 224 51s-.198-1-.441-1-.719.45-1.059 1m9.5-.294c-5.195 1.899-8.324 9.094-6.088 14 .639 1.404.923 2.792.63 3.085-.293.293-1.029-.89-1.635-2.629-.607-1.739-1.682-3.162-2.39-3.162-1.676 0-4.993 5.063-3.849 5.876.483.343 1.666 1.861 2.628 3.374 1.268 1.992 2.57 2.75 4.727 2.75 1.637 0 2.977-.477 2.977-1.059s-.493-.754-1.096-.382c-.686.424-.945-.021-.691-1.191.223-1.027 1.054-1.702 1.846-1.499 6.329 1.62 9.613 1.278 12.703-1.322 1.894-1.594 3.421-4.003 3.792-5.986 1.408-7.503-6.511-14.429-13.554-11.855M41 52c0 .55.477 1 1.059 1s.781-.45.441-1-.816-1-1.059-1-.441.45-.441 1m111.5 0c.34.55.816 1 1.059 1s.441-.45.441-1-.477-1-1.059-1-.781.45-.441 1M140 56.382c0 .825.45 1.778 1 2.118.55.34 1-.057 1-.882s-.45-1.778-1-2.118c-.55-.34-1 .057-1 .882m-92.292 2.299c.278.726.956 1.319 1.506 1.319s.744.668.43 1.485C48.866 63.513 51.975 65 56.995 65h4.126l-.311-3.75-.31-3.75-6.649-.069c-5.112-.052-6.532.237-6.143 1.25m110.968-.083c.263.686 1.111 1.49 1.884 1.787.774.297 1.151 1.204.84 2.016-.627 1.632 4.424 3.043 8.719 2.436 1.99-.282 2.381-.911 2.381-3.837v-3.5l-7.151-.074c-5.325-.056-7.029.244-6.673 1.172M137.5 60c.34.55.816 1 1.059 1s.441-.45.441-1-.477-1-1.059-1-.781.45-.441 1m67 2c-1.1.413-2.325.562-2.722.333-1.341-.773-5.668 2.791-5.12 4.218.295.77 1.86 2.06 3.476 2.866 2.886 1.44 2.95 1.414 3.524-1.459.322-1.609.948-2.701 1.392-2.427.771.476 2.498-3.362 1.791-3.981-.187-.164-1.241.038-2.341.45M73 62.941c0 .518.468 1.23 1.041 1.584.572.354.795 1.618.494 2.809l-.546 2.166 1.134-2.195c1.213-2.348.604-5.305-1.092-5.305-.567 0-1.031.423-1.031.941m60.572 3.832c-.733 2.31-4.599 4.227-8.525 4.227-2.367 0-2.77.344-2.337 2 .364 1.391.031 2-1.093 2-.89 0-1.617.4-1.617.889 0 1.51-7.996.727-9.08-.889-.789-1.175-.943-.958-.713 1 .282 2.404.599 2.512 8.293 2.805 4.4.168 9.506.027 11.347-.313 3.126-.578 3.242-.736 1.75-2.384-1.863-2.06-2.133-5.221-.414-4.858 1.235.261 4.371-5.029 3.499-5.901-.275-.275-.774.366-1.11 1.424m7.428.286c0 1.132.45 1.781 1 1.441.55-.34 1-1.266 1-2.059 0-.793-.45-1.441-1-1.441s-1 .927-1 2.059m-2.512 1.118c-.355.923-.488 2.723-.295 4l.351 2.323 1.27-2.263c.87-1.549.963-2.812.296-4-.904-1.61-1.023-1.615-1.622-.06M72 69.882c0 .55.45 1.278 1 1.618.55.34 1 .168 1-.382s-.45-1.278-1-1.618c-.55-.34-1-.168-1 .382m47 1c0 .55.45 1.278 1 1.618.55.34 1 .168 1-.382s-.45-1.278-1-1.618c-.55-.34-1-.168-1 .382m-72.312 1.764c-1.364 1.363-.646 2.925 1.344 2.925 1.24 0 1.922-.566 1.75-1.452-.322-1.66-2.074-2.494-3.094-1.473m80.391 1.045c-.043 1.205.401 2.488.988 2.85 1.41.872 2.688-.447 1.304-1.345-.589-.383-1.328-1.371-1.642-2.196-.389-1.021-.596-.8-.65.691m31.036.095c-.764 1.426-.569 1.785.964 1.785 1.178 0 1.921-.691 1.921-1.785 0-2.3-1.654-2.3-2.885 0m-53.615 39.73c-13.75 7.96-25.787 15.424-26.75 16.589-1.563 1.89-1.75 4.772-1.75 26.947 0 15.475.377 25.063 1 25.448.657.406 1-8.093 1-24.75 0-18.716.328-25.816 1.25-27.077.688-.94 12.934-8.451 27.214-16.691 14.28-8.24 25.305-14.972 24.5-14.959-.805.012-12.714 6.534-26.464 14.493m32.75 8.398c-3.502 2.112-4.247 3.094-4.235 5.575.023 4.468 1.173 5.77 4.109 4.654 3.839-1.46 5.021-3.576 4.684-8.39l-.308-4.402-4.25 2.563m-22 12.727c-4.244 2.558-5.172 4.794-3.643 8.777.946 2.467 5.012 1.882 7.32-1.053 1.998-2.539 3.006-10.414 1.323-10.326-.412.021-2.662 1.192-5 2.602m-35.235 4.893c-.013 3.43.434 4.3 2.985 5.807 3.534 2.088 3.636 1.782 1.039-3.131-3.6-6.81-4.007-7.08-4.024-2.676m13.235 8.032c-3.348 2.007-4.25 3.129-4.25 5.291 0 5.075 4.18 6.811 7.519 3.122 1.757-1.941 3.124-10.99 1.658-10.97-.372.006-2.589 1.156-4.927 2.557m13.032 19.834c-12.37 7.065-15.941 9.541-15.05 10.432.642.642 1.82 1.168 2.618 1.168.797 0 8.632-4.132 17.412-9.181 14.305-8.228 15.775-9.319 14.159-10.5-.992-.726-2.055-1.288-2.362-1.25-.308.038-7.857 4.237-16.777 9.331" fill="#1976D2" fill-rule="evenodd"/></svg>